<?xml version="1.0" standalone="no"?>
<!DOCTYPE svg PUBLIC "-//W3C//DTD SVG 20010904//EN"
 "http://www.w3.org/TR/2001/REC-SVG-20010904/DTD/svg10.dtd">
<svg version="1.0" xmlns="http://www.w3.org/2000/svg"
 width="200.000000pt" height="200.000000pt" viewBox="0 0 200.000000 200.000000"
 preserveAspectRatio="xMidYMid meet">

<g transform="translate(0.000000,200.000000) scale(0.100000,-0.100000)"
fill="#000000" stroke="none">
<path d="M0 1000 l0 -1000 1000 0 1000 0 0 1000 0 1000 -1000 0 -1000 0 0
-1000z m1470 -10 l0 -470 -470 0 -470 0 0 470 0 470 470 0 470 0 0 -470z"/>
<path d="M590 995 l0 -415 245 0 c153 0 245 4 245 10 0 6 67 11 168 12 l167 3
3 153 3 152 -171 0 -171 0 3 28 3 27 168 3 167 2 -2 218 -3 217 -412 3 -413 2
0 -415z"/>
</g>
</svg>
